<mxfile host="Electron" modified="2023-11-13T23:26:45.604Z" agent="Mozilla/5.0 (Windows NT 10.0; Win64; x64) AppleWebKit/537.36 (KHTML, like Gecko) draw.io/22.0.3 Chrome/114.0.5735.289 Electron/25.8.4 Safari/537.36" etag="5jqOB0Z6X2AUQgigv8Xg" version="22.0.3" type="device">
  <diagram name="Trang-1" id="8WOk82VxNDKTeJKdt3mN">
    <mxGraphModel dx="1036" dy="606" grid="1" gridSize="10" guides="1" tooltips="1" connect="1" arrows="1" fold="1" page="1" pageScale="1" pageWidth="827" pageHeight="1169" math="0" shadow="0">
      <root>
        <mxCell id="0" />
        <mxCell id="1" parent="0" />
        <mxCell id="_pkrtM7WGQT2VM3EGbci-3" style="edgeStyle=orthogonalEdgeStyle;rounded=0;orthogonalLoop=1;jettySize=auto;html=1;entryX=0.5;entryY=0;entryDx=0;entryDy=0;" parent="1" source="_pkrtM7WGQT2VM3EGbci-1" target="_pkrtM7WGQT2VM3EGbci-2" edge="1">
          <mxGeometry relative="1" as="geometry" />
        </mxCell>
        <mxCell id="_pkrtM7WGQT2VM3EGbci-1" value="start" style="ellipse;whiteSpace=wrap;html=1;" parent="1" vertex="1">
          <mxGeometry x="320" y="20" width="120" height="80" as="geometry" />
        </mxCell>
        <mxCell id="_pkrtM7WGQT2VM3EGbci-5" style="edgeStyle=orthogonalEdgeStyle;rounded=0;orthogonalLoop=1;jettySize=auto;html=1;entryX=0.5;entryY=0;entryDx=0;entryDy=0;" parent="1" source="_pkrtM7WGQT2VM3EGbci-2" edge="1">
          <mxGeometry relative="1" as="geometry">
            <mxPoint x="380" y="270" as="targetPoint" />
          </mxGeometry>
        </mxCell>
        <mxCell id="_pkrtM7WGQT2VM3EGbci-2" value="number" style="shape=parallelogram;perimeter=parallelogramPerimeter;whiteSpace=wrap;html=1;fixedSize=1;" parent="1" vertex="1">
          <mxGeometry x="320" y="150" width="120" height="60" as="geometry" />
        </mxCell>
        <mxCell id="_pkrtM7WGQT2VM3EGbci-10" style="edgeStyle=orthogonalEdgeStyle;rounded=0;orthogonalLoop=1;jettySize=auto;html=1;" parent="1" source="_pkrtM7WGQT2VM3EGbci-6" target="_pkrtM7WGQT2VM3EGbci-9" edge="1">
          <mxGeometry relative="1" as="geometry" />
        </mxCell>
        <mxCell id="_pkrtM7WGQT2VM3EGbci-13" value="true" style="edgeLabel;html=1;align=center;verticalAlign=middle;resizable=0;points=[];" parent="_pkrtM7WGQT2VM3EGbci-10" vertex="1" connectable="0">
          <mxGeometry x="-0.3404" y="-3" relative="1" as="geometry">
            <mxPoint as="offset" />
          </mxGeometry>
        </mxCell>
        <mxCell id="_pkrtM7WGQT2VM3EGbci-16" style="edgeStyle=orthogonalEdgeStyle;rounded=0;orthogonalLoop=1;jettySize=auto;html=1;entryX=1;entryY=0.5;entryDx=0;entryDy=0;" parent="1" source="_pkrtM7WGQT2VM3EGbci-6" target="_pkrtM7WGQT2VM3EGbci-15" edge="1">
          <mxGeometry relative="1" as="geometry" />
        </mxCell>
        <mxCell id="_pkrtM7WGQT2VM3EGbci-17" value="false" style="edgeLabel;html=1;align=center;verticalAlign=middle;resizable=0;points=[];" parent="_pkrtM7WGQT2VM3EGbci-16" vertex="1" connectable="0">
          <mxGeometry x="-0.2529" y="3" relative="1" as="geometry">
            <mxPoint as="offset" />
          </mxGeometry>
        </mxCell>
        <mxCell id="_pkrtM7WGQT2VM3EGbci-6" value="i&amp;lt;10" style="rhombus;whiteSpace=wrap;html=1;" parent="1" vertex="1">
          <mxGeometry x="330" y="400" width="100" height="100" as="geometry" />
        </mxCell>
        <mxCell id="Z21QRae6uHeMnoYlsQMu-5" style="edgeStyle=orthogonalEdgeStyle;rounded=0;orthogonalLoop=1;jettySize=auto;html=1;exitX=0.5;exitY=1;exitDx=0;exitDy=0;" edge="1" parent="1" source="_pkrtM7WGQT2VM3EGbci-9" target="Z21QRae6uHeMnoYlsQMu-4">
          <mxGeometry relative="1" as="geometry" />
        </mxCell>
        <mxCell id="_pkrtM7WGQT2VM3EGbci-9" value="&amp;nbsp;number*i" style="shape=parallelogram;perimeter=parallelogramPerimeter;whiteSpace=wrap;html=1;fixedSize=1;" parent="1" vertex="1">
          <mxGeometry x="320" y="555" width="120" height="60" as="geometry" />
        </mxCell>
        <mxCell id="_pkrtM7WGQT2VM3EGbci-15" value="end" style="ellipse;whiteSpace=wrap;html=1;" parent="1" vertex="1">
          <mxGeometry x="90" y="410" width="120" height="80" as="geometry" />
        </mxCell>
        <mxCell id="Z21QRae6uHeMnoYlsQMu-2" style="edgeStyle=orthogonalEdgeStyle;rounded=0;orthogonalLoop=1;jettySize=auto;html=1;entryX=0.5;entryY=0;entryDx=0;entryDy=0;" edge="1" parent="1" source="Z21QRae6uHeMnoYlsQMu-1" target="_pkrtM7WGQT2VM3EGbci-6">
          <mxGeometry relative="1" as="geometry" />
        </mxCell>
        <mxCell id="Z21QRae6uHeMnoYlsQMu-1" value="i=1" style="rounded=0;whiteSpace=wrap;html=1;" vertex="1" parent="1">
          <mxGeometry x="320" y="270" width="120" height="60" as="geometry" />
        </mxCell>
        <mxCell id="Z21QRae6uHeMnoYlsQMu-6" style="edgeStyle=orthogonalEdgeStyle;rounded=0;orthogonalLoop=1;jettySize=auto;html=1;exitX=1;exitY=0.5;exitDx=0;exitDy=0;entryX=1;entryY=0.5;entryDx=0;entryDy=0;" edge="1" parent="1" source="Z21QRae6uHeMnoYlsQMu-4" target="_pkrtM7WGQT2VM3EGbci-6">
          <mxGeometry relative="1" as="geometry">
            <mxPoint x="560" y="690" as="targetPoint" />
            <Array as="points">
              <mxPoint x="550" y="690" />
              <mxPoint x="550" y="450" />
            </Array>
          </mxGeometry>
        </mxCell>
        <mxCell id="Z21QRae6uHeMnoYlsQMu-4" value="i++" style="rounded=0;whiteSpace=wrap;html=1;" vertex="1" parent="1">
          <mxGeometry x="320" y="660" width="120" height="60" as="geometry" />
        </mxCell>
      </root>
    </mxGraphModel>
  </diagram>
</mxfile>
